<svg width="32" height="32" viewBox="0 0 32 32" xmlns="http://www.w3.org/2000/svg">
  <defs>
    <!-- 紫色渐变 -->
    <linearGradient id="faviconBracketGradient" x1="0%" y1="0%" x2="100%" y2="100%">
      <stop offset="0%" style="stop-color:#6366f1;stop-opacity:1" />
      <stop offset="100%" style="stop-color:#8b5cf6;stop-opacity:1" />
    </linearGradient>

    <!-- X标记渐变 -->
    <linearGradient id="faviconXGradient" x1="0%" y1="0%" x2="100%" y2="0%">
      <stop offset="0%" style="stop-color:#8b5cf6;stop-opacity:1" />
      <stop offset="100%" style="stop-color:#6366f1;stop-opacity:1" />
    </linearGradient>

    <!-- AI指示点渐变 -->
    <linearGradient id="faviconAiDotGradient" x1="0%" y1="0%" x2="100%" y2="100%">
      <stop offset="0%" style="stop-color:#10b981;stop-opacity:1" />
      <stop offset="100%" style="stop-color:#34d399;stop-opacity:1" />
    </linearGradient>
  </defs>

  <!-- 背景（可选，用于更好的可见性） -->
  <rect width="32" height="32" rx="6" fill="#ffffff" opacity="0.1"/>

  <!-- 左括号 -->
  <path d="M 9 6 L 6 6 Q 4 6 4 8 L 4 24 Q 4 26 6 26 L 9 26"
        stroke="url(#faviconBracketGradient)"
        stroke-width="1.5"
        fill="none"
        stroke-linecap="round"/>

  <!-- 右括号 -->
  <path d="M 23 6 L 26 6 Q 28 6 28 8 L 28 24 Q 28 26 26 26 L 23 26"
        stroke="url(#faviconBracketGradient)"
        stroke-width="1.5"
        fill="none"
        stroke-linecap="round"/>

  <!-- X 标记 -->
  <g>
    <!-- 第一条对角线 -->
    <line x1="11" y1="11" x2="21" y2="21"
          stroke="url(#faviconXGradient)"
          stroke-width="2"
          stroke-linecap="round"/>

    <!-- 第二条对角线 -->
    <line x1="21" y1="11" x2="11" y2="21"
          stroke="url(#faviconXGradient)"
          stroke-width="2"
          stroke-linecap="round"/>
  </g>

  <!-- AI 指示点 -->
  <circle cx="24" cy="9" r="2" fill="url(#faviconAiDotGradient)"/>
</svg>